<svg width="108px" height="108px" xmlns="http://www.w3.org/2000/svg" xmlns:xlink="http://www.w3.org/1999/xlink" overflow="hidden" xmlns:bx="https://boxy-svg.com">
  <defs>
    <linearGradient id="gradient-0">
      <stop offset="0" style="stop-color: rgb(147, 117, 239);"></stop>
      <stop offset="1" style="stop-color: rgb(255, 124, 83);"></stop>
    </linearGradient>
    <linearGradient id="gradient-0-1" href="#gradient-0" gradientTransform="matrix(0.829584, 0.811208, -0.699144, 0.71498, 0, 0)"></linearGradient>
    <linearGradient id="gradient-1" bx:pinned="true">
      <stop offset="0" style="stop-color: rgb(212, 120, 26);"></stop>
      <stop offset="1" style="stop-color: rgb(170, 54, 120);"></stop>
    </linearGradient>
    <linearGradient id="gradient-1-0" href="#gradient-1" gradientUnits="userSpaceOnUse" x1="100" y1="0" x2="100" y2="200" gradientTransform="matrix(0.448308, -0.301032, 0.353959, 0.527128, 11.717142, 34.986031)"></linearGradient>
  </defs>
  <rect width="108" height="108" style="fill: url(#gradient-1-0);"></rect>
  <g style="" transform="matrix(0.481803, 0, 0, 0.481803, 5.820061, 5.819689)">
    <path d="M 91.563 147.051 L 90.172 135.912 C 89.192 135.585 88.189 135.125 87.16 134.538 C 86.131 133.945 85.208 133.315 84.399 132.639 L 74.086 136.999 L 65.65 122.374 L 74.572 115.634 C 74.489 115.086 74.426 114.542 74.391 113.995 C 74.355 113.447 74.338 112.9 74.338 112.356 C 74.338 111.835 74.355 111.305 74.391 110.771 C 74.426 110.231 74.489 109.644 74.572 109.008 L 65.65 102.268 L 74.086 87.715 L 84.364 92.038 C 85.248 91.34 86.188 90.701 87.187 90.122 C 88.189 89.543 89.17 89.079 90.137 88.726 L 91.563 77.591 L 108.436 77.591 L 109.827 88.761 C 110.923 89.158 111.917 89.627 112.805 90.157 C 113.693 90.687 114.589 91.314 115.494 92.038 L 125.914 87.715 L 134.35 102.268 L 125.287 109.115 C 125.42 109.706 125.49 110.258 125.503 110.771 C 125.511 111.283 125.52 111.8 125.52 112.321 C 125.52 112.815 125.507 113.324 125.485 113.836 C 125.459 114.349 125.376 114.936 125.229 115.598 L 134.222 122.374 L 125.786 136.999 L 115.494 132.603 C 114.589 133.324 113.666 133.963 112.725 134.516 C 111.78 135.072 110.817 135.528 109.827 135.876 L 108.436 147.051 L 91.563 147.051 Z M 100.04 123.288 C 103.083 123.288 105.672 122.219 107.805 120.086 C 109.943 117.953 111.007 115.359 111.007 112.321 C 111.007 109.278 109.943 106.689 107.805 104.555 C 105.672 102.423 103.083 101.353 100.04 101.353 C 96.961 101.353 94.364 102.423 92.248 104.555 C 90.133 106.689 89.077 109.278 89.077 112.321 C 89.077 115.359 90.133 117.953 92.248 120.086 C 94.364 122.219 96.961 123.288 100.04 123.288 Z" style="fill: rgb(255, 255, 255);"></path>
    <path d="M 30.363 173.02 C 26.172 173.02 22.706 171.651 19.966 168.91 C 17.226 166.17 15.856 162.704 15.856 158.513 L 15.856 67.601 C 15.856 63.408 17.226 59.943 19.966 57.204 C 22.706 54.462 26.172 53.094 30.363 53.094 L 73.886 53.094 L 73.886 41.487 C 73.886 37.295 75.256 33.83 77.996 31.09 C 80.736 28.349 84.202 26.98 88.393 26.98 L 111.605 26.98 C 115.797 26.98 119.262 28.349 122.003 31.09 C 124.743 33.83 126.113 37.295 126.113 41.487 L 126.113 53.094 L 169.635 53.094 C 173.826 53.094 177.293 54.462 180.032 57.204 C 182.772 59.943 184.143 63.408 184.143 67.601 L 184.143 158.513 C 184.143 162.704 182.772 166.17 180.032 168.91 C 177.293 171.651 173.826 173.02 169.635 173.02 L 30.363 173.02 Z M 30.363 166.25 L 169.635 166.25 C 171.569 166.25 173.342 165.445 174.954 163.833 C 176.567 162.22 177.372 160.448 177.372 158.513 L 177.372 67.601 C 177.372 65.666 176.567 63.892 174.954 62.281 C 173.342 60.668 171.569 59.864 169.635 59.864 L 30.363 59.864 C 28.429 59.864 26.656 60.668 25.044 62.281 C 23.432 63.892 22.626 65.666 22.626 67.601 L 22.626 158.513 C 22.626 160.448 23.432 162.22 25.044 163.833 C 26.656 165.445 28.429 166.25 30.363 166.25 Z M 80.656 53.094 L 119.342 53.094 L 119.342 41.487 C 119.342 39.553 118.537 37.778 116.924 36.168 C 115.313 34.556 113.539 33.75 111.605 33.75 L 88.393 33.75 C 86.459 33.75 84.686 34.556 83.074 36.168 C 81.462 37.778 80.656 39.553 80.656 41.487 L 80.656 53.094 Z M 22.626 166.25 L 22.626 59.864 L 22.626 166.25 Z" style="fill: rgb(255, 255, 255);"></path>
  </g>
</svg>
